<?xml version="1.0" encoding="utf-8"?>
<!-- Generator: Adobe Illustrator 21.0.0, SVG Export Plug-In . SVG Version: 6.00 Build 0)  -->
<svg version="1.1" id="Capa_1" xmlns="http://www.w3.org/2000/svg" xmlns:xlink="http://www.w3.org/1999/xlink" x="0px" y="0px"
	 viewBox="0 0 449.4 355" style="enable-background:new 0 0 449.4 355;" xml:space="preserve">
<style type="text/css">
	.st0{fill:#FFFFFF;}
	.st1{fill:#E8EAF6;}
	.st2{fill:#242A45;}
	.st3{opacity:0.245;fill:#FFFFFF;enable-background:new    ;}
	.st4{opacity:0.75;fill:#FFFFFF;enable-background:new    ;}
	.st5{opacity:0.25;fill:#FFFFFF;enable-background:new    ;}
	.st6{opacity:0.5;fill:#242A45;enable-background:new    ;}
	.st7{fill:#5267DF;}
	.st8{opacity:0.25;fill:#242A45;enable-background:new    ;}
	.st9{fill:#FA5959;}
	.st10{fill:#495DCF;fill-opacity:0.2;stroke:#5267DF;stroke-width:20;}
	.st11{fill:none;stroke:#5267DF;stroke-width:20;stroke-linecap:round;stroke-linejoin:round;}
</style>
<g>
	<g>
		<path id="a" class="st0" d="M7.5,1.8h311.5c4.1,0,7.5,3.2,7.5,7v289.6c0,3.9-3.4,7-7.5,7H7.5c-4.1,0-7.5-3.2-7.5-7V8.8
			C0,4.9,3.4,1.8,7.5,1.8z"/>
	</g>
	<g>
		<g>
			<path id="a_1_" class="st1" d="M7.5,1.8h311.5c4.1,0,7.5,3.2,7.5,7v289.6c0,3.9-3.4,7-7.5,7H7.5c-4.1,0-7.5-3.2-7.5-7V8.8
				C0,4.9,3.4,1.8,7.5,1.8z"/>
		</g>
		<g>
			<path class="st2" d="M0,2h326.4v51.8H0V2z"/>
			<g transform="translate(22.47 14.197)">
				<ellipse class="st3" cx="6.5" cy="14.1" rx="13.5" ry="14.1"/>
				<g transform="translate(47 6)">
					<path class="st4" d="M-12-0.7h95.7c1.4,0,2.5,1.2,2.5,2.6l0,0c0,1.5-1.1,2.6-2.5,2.6H-12c-1.4,0-2.5-1.2-2.5-2.6l0,0
						C-14.5,0.5-13.4-0.7-12-0.7z"/>
					<path class="st5" d="M-12,11.6h48.7c1.4,0,2.5,1.2,2.5,2.6l0,0c0,1.5-1.1,2.6-2.5,2.6H-12c-1.4,0-2.5-1.2-2.5-2.6l0,0
						C-14.5,12.7-13.4,11.6-12,11.6z"/>
				</g>
			</g>
		</g>
		<g transform="translate(27 138)">
			<g>
				<path id="d_2_" d="M5.6-15.1h171.6c4.1,0,7.5,3.2,7.5,7v209.7c0,3.9-3.4,7-7.5,7H5.6c-4.1,0-7.5-3.2-7.5-7V-8.1
					C-1.8-12,1.5-15.1,5.6-15.1z"/>
			</g>
			<g>
				<path id="d_1_" class="st0" d="M5.6-15.1h171.6c4.1,0,7.5,3.2,7.5,7v209.7c0,3.9-3.4,7-7.5,7H5.6c-4.1,0-7.5-3.2-7.5-7V-8.1
					C-1.8-12,1.5-15.1,5.6-15.1z"/>
			</g>
			<g transform="translate(23 29)">
				<path class="st6" d="M42-13.4h88.9c1.6,0,2.8,1.2,2.8,2.6l0,0c0,1.5-1.2,2.6-2.8,2.6H42c-1.6,0-2.8-1.2-2.8-2.6l0,0
					C39.2-12.3,40.5-13.4,42-13.4z"/>
				<ellipse class="st7" cx="11.5" cy="-4.6" rx="14.9" ry="14.1"/>
				<path class="st8" d="M42-1.1h44.8c1.6,0,2.8,1.2,2.8,2.6l0,0c0,1.5-1.2,2.6-2.8,2.6H42c-1.6,0-2.8-1.2-2.8-2.6l0,0
					C39.2,0,40.5-1.1,42-1.1z"/>
				<g transform="translate(0 56)">
					<ellipse class="st7" cx="11.5" cy="-11.5" rx="14.9" ry="14.1"/>
					<path class="st6" d="M42-20.3h88.9c1.6,0,2.8,1.2,2.8,2.6l0,0c0,1.5-1.2,2.6-2.8,2.6H42c-1.6,0-2.8-1.2-2.8-2.6l0,0
						C39.2-19.1,40.5-20.3,42-20.3z"/>
					<path class="st8" d="M42-8h44.8c1.6,0,2.8,1.2,2.8,2.6l0,0c0,1.5-1.2,2.6-2.8,2.6H42c-1.6,0-2.8-1.2-2.8-2.6l0,0
						C39.2-6.8,40.5-8,42-8z"/>
				</g>
				<g transform="translate(0 112)">
					<ellipse class="st7" cx="11.5" cy="-18.4" rx="14.9" ry="14.1"/>
					<path class="st6" d="M42-27.1h88.9c1.6,0,2.8,1.2,2.8,2.6l0,0c0,1.5-1.2,2.6-2.8,2.6H42c-1.6,0-2.8-1.2-2.8-2.6l0,0
						C39.2-26,40.5-27.1,42-27.1z"/>
					<path class="st8" d="M42-14.9h44.8c1.6,0,2.8,1.2,2.8,2.6l0,0c0,1.5-1.2,2.6-2.8,2.6H42c-1.6,0-2.8-1.2-2.8-2.6l0,0
						C39.2-13.7,40.5-14.9,42-14.9z"/>
				</g>
				<g transform="translate(0 168)">
					<ellipse class="st7" cx="11.5" cy="-25.2" rx="14.9" ry="14.1"/>
					<path class="st6" d="M42-34h88.9c1.6,0,2.8,1.2,2.8,2.6l0,0c0,1.5-1.2,2.6-2.8,2.6H42c-1.6,0-2.8-1.2-2.8-2.6l0,0
						C39.2-32.9,40.5-34,42-34z"/>
					<path class="st8" d="M42-21.8h44.8c1.6,0,2.8,1.2,2.8,2.6l0,0c0,1.5-1.2,2.6-2.8,2.6H42c-1.6,0-2.8-1.2-2.8-2.6l0,0
						C39.2-20.5,40.5-21.8,42-21.8z"/>
				</g>
			</g>
		</g>
		<g transform="translate(251 138)">
			<g>
				
					<image style="overflow:visible;enable-background:new    ;" width="236" height="274" xlink:href="2C2EB4D0.png"  transform="matrix(0.9289 0 0 0.9289 -33.3756 -26.0723)">
				</image>
			</g>
			<g>
				<path id="g_2_" class="st0" d="M-9.5-15.1h171.6c4.1,0,7.5,3.2,7.5,7v209.7c0,3.9-3.4,7-7.5,7H-9.5c-4.1,0-7.5-3.2-7.5-7V-8.1
					C-16.9-12-13.6-15.1-9.5-15.1z"/>
			</g>
			<g transform="translate(23 29)">
				<path class="st6" d="M26.9-13.4h88.9c1.6,0,2.8,1.2,2.8,2.6l0,0c0,1.5-1.2,2.6-2.8,2.6H26.9c-1.6,0-2.8-1.2-2.8-2.6l0,0
					C24.1-12.3,25.4-13.4,26.9-13.4z"/>
				<ellipse class="st7" cx="-3.6" cy="-4.6" rx="14.9" ry="14.1"/>
				<path class="st8" d="M26.9-1.1h44.8c1.6,0,2.8,1.2,2.8,2.6l0,0c0,1.5-1.2,2.6-2.8,2.6H26.9c-1.6,0-2.8-1.2-2.8-2.6l0,0
					C24.1,0,25.4-1.1,26.9-1.1z"/>
				<g transform="translate(0 56)">
					<ellipse class="st9" cx="-3.6" cy="-11.5" rx="14.9" ry="14.1"/>
					<path class="st6" d="M26.9-20.3h88.9c1.6,0,2.8,1.2,2.8,2.6l0,0c0,1.5-1.2,2.6-2.8,2.6H26.9c-1.6,0-2.8-1.2-2.8-2.6l0,0
						C24.1-19.1,25.4-20.3,26.9-20.3z"/>
					<path class="st8" d="M26.9-8h44.8c1.6,0,2.8,1.2,2.8,2.6l0,0c0,1.5-1.2,2.6-2.8,2.6H26.9c-1.6,0-2.8-1.2-2.8-2.6l0,0
						C24.1-6.8,25.4-8,26.9-8z"/>
				</g>
				<g transform="translate(0 112)">
					<ellipse class="st7" cx="-3.6" cy="-18.4" rx="14.9" ry="14.1"/>
					<path class="st6" d="M26.9-27.1h88.9c1.6,0,2.8,1.2,2.8,2.6l0,0c0,1.5-1.2,2.6-2.8,2.6H26.9c-1.6,0-2.8-1.2-2.8-2.6l0,0
						C24.1-26,25.4-27.1,26.9-27.1z"/>
					<path class="st8" d="M26.9-14.9h44.8c1.6,0,2.8,1.2,2.8,2.6l0,0c0,1.5-1.2,2.6-2.8,2.6H26.9c-1.6,0-2.8-1.2-2.8-2.6l0,0
						C24.1-13.7,25.4-14.9,26.9-14.9z"/>
				</g>
				<g transform="translate(0 168)">
					<ellipse class="st7" cx="-3.6" cy="-25.2" rx="14.9" ry="14.1"/>
					<path class="st6" d="M26.9-34h88.9c1.6,0,2.8,1.2,2.8,2.6l0,0c0,1.5-1.2,2.6-2.8,2.6H26.9c-1.6,0-2.8-1.2-2.8-2.6l0,0
						C24.1-32.9,25.4-34,26.9-34z"/>
					<path class="st8" d="M26.9-21.8h44.8c1.6,0,2.8,1.2,2.8,2.6l0,0c0,1.5-1.2,2.6-2.8,2.6H26.9c-1.6,0-2.8-1.2-2.8-2.6l0,0
						C24.1-20.5,25.4-21.8,26.9-21.8z"/>
				</g>
			</g>
		</g>
		<path class="st0" d="M32.6,76.4h206.1c4.1,0,7.5,3.2,7.5,7v15.8c0,3.9-3.4,7-7.5,7H32.6c-4.1,0-7.5-3.2-7.5-7V83.4
			C25.2,79.5,28.5,76.4,32.6,76.4z"/>
		<g transform="translate(305 102)">
			<ellipse class="st10" cx="41.9" cy="48" rx="62.5" ry="58.8"/>
			<path class="st11" d="M85.7,90.2l45.7,43"/>
		</g>
	</g>
</g>
</svg>
